<svg xmlns:xlink="http://www.w3.org/1999/xlink" xmlns="http://www.w3.org/2000/svg" version="1.1" id="Layer_1" x="0px" y="0px" viewBox="0 0 288.8 115.7" style="enable-background: new 0 0 288.8 115.7">
<style type="text/css">.st0{fill:#E1000F;}
	.st1{fill:#FFFFFF;}</style>

<rect x="0" y="0" class="st0" width="288.8" height="115.7" />
<g>
	<g>
		<path class="st1" d="M72.2,77.4c0,15.4,9.9,25,25.7,25c15.8,0,25.7-9.6,25.7-25V66.5h-19.9v12.7c0,2.3,0,7.9-5.7,7.9    c-5.7,0-5.7-5.6-5.7-7.9V36.4c0-2.9,0-7.9,5.7-7.9c5.7,0,5.7,5,5.7,7.9v9.7h19.9v-8c0-16.9-10.8-25-25.7-25    c-14.8,0-25.7,8.1-25.7,25V77.4z" />
	</g>
	<polygon class="st1" points="18,101 63.3,101 63.3,84.3 37.9,84.3 37.9,65.1 59.3,65.1 59.3,48.4 37.9,48.4 37.9,31.3 62.3,31.3    62.3,14.6 18,14.6" />
	<polygon class="st1" points="132.4,101 152.3,101 152.3,64.2 163.7,64.2 163.7,101 183.7,101 183.7,14.6 163.7,14.6 163.7,46.9    152.3,46.9 152.3,14.6 132.4,14.6" />
	<g>
		<path class="st1" d="M192.5,77.4c0,15.4,9.9,25,25.7,25c15.8,0,25.7-9.6,25.7-25V38.2c0-16.9-10.8-25-25.7-25    c-14.8,0-25.7,8.1-25.7,25V77.4z M212.5,36.4c0-2.9,0-7.9,5.7-7.9c5.7,0,5.7,5,5.7,7.9v42.7c0,2.3,0,7.9-5.7,7.9    c-5.7,0-5.7-5.6-5.7-7.9V36.4z" />
	</g>
	<g>
		<path class="st1" d="M262.9,100.3v-0.9c2.3-0.7,4.7-2.4,4.7-4.8c0-1.3-0.7-2.6-2.2-2.6c-1.2,0-1.8,0.6-2.1,1.9l-0.4,1.8    c-0.7,3.3-2.6,4.6-4.6,4.6c-3,0-4.5-2.2-4.5-4.8c0-1.2,0.4-2.2,1.1-3.2l-1-1v-0.8l5.2-0.2v0.9c-2.1,0.7-4.3,2.2-4.3,4.5    c0,1.2,0.6,2.5,2,2.5c0.9,0,1.6-0.4,2-2l0.5-2.2c0.7-3,2.2-4.2,4.7-4.2c2.4,0,4.6,1.7,4.6,4.7c0,1.5-0.5,2.7-1.3,3.7l1.2,1.1v0.8    L262.9,100.3z" />
		<path class="st1" d="M261.7,82.1c-1.4,0-1.9,0.5-1.9,1.7c0,0.9,0.4,1.3,0.7,1.3c0.3,0,0.5-0.4,1.1-0.4c0.7,0,1.3,0.5,1.3,1.5    c0,0.6-0.5,1.4-1.5,1.4c-1.4,0-2.5-1.5-2.5-4.1c0-2.1,0.6-4.1,3-4.1h4c1,0,1.3-0.2,1.3-0.5c0-0.3-0.3-0.4-0.3-0.7    c0-0.2,0.1-0.3,0.3-0.3c0.8,0,1.6,1,1.6,1.9c0,0.9-0.6,1.7-1.4,1.9c0.9,0.8,1.4,2.1,1.4,3.5c0,1.7-0.7,2.8-2.3,2.8    c-1.8,0-2.9-1.3-3.7-5.9H261.7z M263.7,82.1c0.5,2.2,1,2.9,2.3,2.9c0.9,0,1.4-0.5,1.4-1.2c0-1-0.9-1.7-2.4-1.7H263.7z" />
		<path class="st1" d="M267.4,76.8v-0.3c0-1-0.1-1.1-0.9-1.1H256c-0.8,0-1,0.2-1,0.9v0.5h-1l-0.2-4.2h12.8c0.8,0,0.9-0.1,0.9-1.1    v-0.3h1v5.5H267.4z" />
		<path class="st1" d="M267.4,69.6l-7.5-5v1.7c0,1.2,0.8,1.7,2.6,2.1v0.9l-3.6-0.2v-7.8h1l7.5,4.9v-2c0-0.9-1.1-1.7-2.8-2.1v-0.8    l3.8,0.2v8.1H267.4z" />
		<path class="st1" d="M254,60l-0.2-4.2h6.6v0c-1-0.5-1.6-1.7-1.6-2.8c0-2.5,2.2-3.9,4.8-3.9c2.6,0,5.1,1.7,5.1,4.6    c0,1.2-0.5,2.4-1.6,3.1l1.6,1.2v0.8c-1.2-0.2-2.4-0.2-3.6-0.2H256c-0.8,0-1,0.2-1,0.9V60H254z M267.7,54c0-1.3-1.6-1.8-3.8-1.8    c-2.5,0-3.8,0.5-3.8,1.8s1.6,1.8,3.8,1.8C266.4,55.8,267.7,55.2,267.7,54z" />
		<path class="st1" d="M259.2,47.6l-0.2-4.2h6.1c1.4,0,1.9-0.5,1.9-1.3c0-1.1-1-2-2.9-2h-2.8c-0.8,0-1,0.2-1,0.9v0.5h-1l-0.2-4.2    h7.2c0.8,0,1-0.2,1-0.9v-0.5h1l0.2,4.1h-1.6v0c1.2,0.7,1.9,1.8,1.9,3.2c0,2.3-1.8,2.9-3.7,2.9h-3.8c-0.8,0-1,0.2-1,0.9v0.5H259.2z" />
		<path class="st1" d="M261.2,33.3c-0.8,0-1,0.2-1,0.9v0.5h-1l-0.2-4h2.7v0c-1.5-0.5-2.9-1.3-2.9-2.9c0-1.1,0.7-2,2-2    c0.9,0,1.6,0.6,1.6,1.5c0,1-0.8,1.4-1.5,1.4c-0.4,0-0.7-0.2-0.9-0.4l0,0c0.5,1.5,2.5,2.2,6.6,2.2c0.8,0,0.9-0.1,0.9-1.1v-0.7h1    v5.9h-1v-0.3c0-1-0.1-1.1-0.9-1.1H261.2z" />
		<path class="st1" d="M268.7,22.5L268.7,22.5c-0.3,1.5-1.1,1.9-1.9,1.9c-1,0-1.7-1-1.8-2.3h0c-0.5,1.6-1.6,2.2-2.8,2.2    c-2.1,0-3.4-1.9-3.4-4.3c0-0.8,0.2-1.8,0.6-2.4c-0.9-0.6-1.6-1.5-1.6-2.3c0-0.7,0.5-1.3,1.3-1.3c0.6,0,1.2,0.3,1.2,1.1    c0,0.6-0.6,1-1.1,1c0,0.2,0.3,0.5,0.6,0.7c0.5-0.7,1.3-1.1,2.3-1.1c1.9,0,3.1,1.5,3.1,4v1c0,0.6,0.3,1,0.6,1    c0.4,0,0.6-0.3,0.7-0.7l0.1-3.6c0.1-1.5,1.3-2.4,2.5-2.4c2.2,0,3.3,2,3.3,5.1c0,3.2-0.7,4.5-1.9,4.5    C269.4,24.6,268.8,23.6,268.7,22.5z M264.4,20c0-0.9-0.9-1.4-2.3-1.4s-2.3,0.4-2.3,1.4s0.9,1.4,2.3,1.4S264.4,20.9,264.4,20z     M271.5,20c0-2.2-0.7-2.7-1.3-2.7c-0.7,0-0.9,0.6-0.9,1.5v2.9c0.2,0.3,0.6,0.6,1,0.6C270.9,22.3,271.5,21.7,271.5,20z" />
	</g>
</g>
</svg>